<svg xmlns="http://www.w3.org/2000/svg" width="512" height="512" viewBox="0 0 512 512" version="1.1">
	<path d="M 196 14.751 L 196 29.789 207.750 30.162 C 218.496 30.504, 219.954 30.786, 224.819 33.464 C 233.741 38.377, 239.588 46.724, 240.703 56.142 L 241.296 61.148 248.650 60.824 L 256.005 60.500 256.002 139.345 L 256 218.191 250.250 214.983 C 239.596 209.039, 230.277 201.266, 222.904 192.175 L 219.396 187.850 213.448 191.383 C 205.788 195.935, 195.418 199.814, 186.162 201.591 C 177.510 203.252, 160.773 203.284, 153 201.654 C 147.675 200.537, 147.414 200.325, 144.796 195 C 140.548 186.357, 138 173.854, 138 161.645 C 138 151.449, 137.913 151.020, 135.750 150.576 C 126.430 148.664, 122.441 147.500, 115.224 144.590 L 106.989 141.270 99.744 147.469 C 79.241 165.016, 60.678 188.753, 48.505 212.991 C 34.501 240.874, 27.919 269.014, 27.919 301 C 27.919 333.637, 34.794 362.734, 49.123 390.740 C 97.984 486.242, 216.255 533.824, 325.600 501.971 C 395.962 481.474, 452.886 428.507, 474.444 363.473 C 482.494 339.189, 486.037 311.095, 484.053 287.275 C 479.456 232.072, 454.856 184.288, 411.813 146.953 L 405.126 141.153 411.313 137.098 C 414.716 134.868, 419.494 131.313, 421.930 129.199 L 426.360 125.354 422.744 119.427 C 416.818 109.713, 408.716 100.689, 400.072 94.175 C 383.587 81.753, 366.414 76, 345.819 76 C 338.695 76, 331.177 76.618, 327.144 77.535 L 320.393 79.071 308.947 73.606 C 295.892 67.373, 287.432 64.432, 277.750 62.759 L 271 61.593 271 57.456 C 271 51.263, 267.473 38.673, 263.780 31.686 C 259.298 23.206, 248.308 12.408, 239.500 7.831 C 229.048 2.399, 223.009 0.916, 208.750 0.281 L 196 -0.287 196 14.751" stroke="none" fill="black" fill-rule="evenodd"/>
</svg>